<svg xmlns="http://www.w3.org/2000/svg" width="1280" height="720" viewBox="0 0 1280 720" fill="none">
  <rect width="1280" height="720" rx="28" fill="#F8FAFC"/>
  <rect x="36" y="36" width="1208" height="648" rx="24" fill="white" stroke="#CBD5E1" stroke-width="2"/>
  <rect x="72" y="72" width="220" height="56" rx="16" fill="#0EA5E9" fill-opacity="0.12"/>
  <text x="96" y="108" fill="#0F172A" font-size="28" font-family="Segoe UI, Arial">平台首页总览</text>
  <text x="72" y="170" fill="#475569" font-size="20" font-family="Segoe UI, Arial">截图占位图：建议替换为仪表盘首页、趋势图和告警摘要。</text>
  <rect x="72" y="214" width="270" height="132" rx="20" fill="#E0F2FE"/>
  <rect x="368" y="214" width="270" height="132" rx="20" fill="#DCFCE7"/>
  <rect x="664" y="214" width="270" height="132" rx="20" fill="#FEF3C7"/>
  <rect x="960" y="214" width="212" height="132" rx="20" fill="#FCE7F3"/>
  <rect x="72" y="382" width="724" height="240" rx="20" fill="#EFF6FF"/>
  <polyline points="120,560 220,510 310,530 430,450 520,470 620,410 748,438" stroke="#0284C7" stroke-width="8" fill="none" stroke-linecap="round" stroke-linejoin="round"/>
  <rect x="824" y="382" width="348" height="240" rx="20" fill="#F8FAFC" stroke="#CBD5E1" stroke-dasharray="8 8"/>
  <text x="874" y="510" fill="#64748B" font-size="24" font-family="Segoe UI, Arial">告警 / 状态摘要区域</text>
</svg>
